<?xml version="1.0" encoding="UTF-8"?><svg id="Capa_1" xmlns="http://www.w3.org/2000/svg" viewBox="0 0 68.16 68.22"><path d="M20.06,56.54c-.87,.89-1.7,1.77-2.57,2.63-1.73,1.7-3.66,1.68-5.35-.06-.22-.23-.4-.49-.65-.81-.3,.27-.49,.43-.67,.6-2.8,2.8-5.6,5.61-8.41,8.42-.22,.22-.44,.46-.69,.65-.47,.35-.96,.32-1.37-.08-.44-.43-.46-.94-.08-1.42,.24-.31,.54-.58,.82-.86,2.86-2.86,5.72-5.72,8.58-8.58,.04-.04,.06-.09,.14-.23-.28-.29-.59-.6-.9-.91-1.48-1.53-1.48-3.47,0-5.01,.9-.93,1.81-1.85,2.75-2.81-.93-1.44-1.27-3.04-.59-4.7,.29-.71,.74-1.42,1.29-1.97,10.01-10.03,20.04-20.04,30.06-30.06,.5-.5,.99-1.02,1.5-1.53,.77-.75,1.27-.76,2.03-.01,1.22,1.21,2.42,2.43,3.61,3.61,2.58-2.58,5.11-5.12,7.71-7.73-.73-.74-1.52-1.54-2.31-2.34-.45-.45-.91-.89-1.35-1.34-.58-.59-.64-1.2-.18-1.67,.46-.48,1.08-.44,1.66,.14,2.05,2.03,4.09,4.06,6.12,6.1,2.15,2.15,4.31,4.29,6.43,6.46,.28,.29,.51,.76,.53,1.15,.01,.27-.36,.76-.6,.79-.41,.05-.98-.05-1.27-.32-1.17-1.07-2.26-2.22-3.38-3.34-.13-.13-.27-.25-.36-.34-2.57,2.56-5.13,5.11-7.8,7.77,1.18,1.14,2.41,2.3,3.61,3.48,.87,.86,.85,1.27,0,2.12-10.39,10.39-20.79,20.79-31.19,31.18-2.27,2.27-4.19,2.55-7.11,1.01Zm9.13-5.99c-1-.99-1.93-1.89-2.84-2.8-.97-.97-1.94-1.94-2.9-2.92-.46-.47-.47-1-.06-1.49,.39-.47,1.02-.45,1.56,0,.12,.1,.24,.21,.35,.33,1.36,1.37,2.72,2.74,4.08,4.1,.42,.42,.85,.83,1.13,1.11,1.92-1.87,3.76-3.67,5.74-5.6-.26-.2-.56-.38-.81-.62-1.58-1.56-3.15-3.13-4.71-4.71-.6-.6-.67-1.3-.22-1.74,.51-.49,1.05-.43,1.73,.23,.42,.4,.83,.82,1.23,1.23,1.39,1.44,2.78,2.88,4.13,4.27,1.97-1.96,3.8-3.78,5.65-5.62-.19-.2-.38-.41-.59-.62-1.66-1.67-3.33-3.32-4.98-5-.53-.54-.53-1.19-.04-1.61,.54-.45,1.08-.35,1.56,.11,.53,.51,1.05,1.04,1.57,1.57,1.33,1.35,2.66,2.71,3.9,3.98l5.66-5.62c-1.79-1.77-3.61-3.57-5.42-5.38-.64-.64-.7-1.23-.21-1.72,.5-.5,1.05-.45,1.72,.21,1.2,1.19,2.4,2.38,3.58,3.6,.62,.64,1.18,1.33,1.72,1.96,1.65-1.65,3.1-3.09,4.48-4.46-3.77-3.8-7.54-7.59-11.33-11.41-.12,.11-.24,.21-.35,.32-10.25,10.24-20.5,20.47-30.74,30.72-1.25,1.25-1.27,2.98-.02,4.25,2.43,2.47,4.88,4.91,7.35,7.33,1.14,1.11,2.85,1.11,4.01,.01,1.34-1.27,2.64-2.59,4.06-4Zm-16.04-.86c-.99,.99-1.99,1.93-2.92,2.93-.46,.49-.41,1.1,.05,1.58,1.21,1.25,2.45,2.49,3.7,3.7,.47,.45,1.1,.56,1.59,.12,1.03-.93,1.98-1.95,2.91-2.88l-5.31-5.44ZM53.07,16.89c2.58-2.56,5.14-5.11,7.64-7.59l-1.75-1.86c-2.58,2.56-5.14,5.09-7.72,7.66l1.83,1.8Z"/></svg>