<?xml version="1.0" encoding="UTF-8"?><svg id="Capa_1" xmlns="http://www.w3.org/2000/svg" fill="#26262620" viewBox="0 0 96.13 96.22"><path d="M28.29,79.75c-1.23,1.26-2.4,2.5-3.62,3.7-2.44,2.4-5.16,2.37-7.55-.08-.31-.32-.56-.69-.92-1.14-.42,.38-.7,.6-.95,.85-3.95,3.96-7.9,7.92-11.86,11.87-.32,.32-.62,.65-.98,.92-.66,.49-1.35,.45-1.93-.11-.62-.61-.64-1.33-.12-2.01,.34-.44,.76-.82,1.16-1.21,4.03-4.04,8.07-8.07,12.1-12.11,.05-.05,.08-.12,.2-.32-.4-.41-.84-.85-1.26-1.29-2.09-2.16-2.09-4.9,0-7.07,1.26-1.31,2.55-2.61,3.88-3.96-1.32-2.04-1.79-4.29-.84-6.63,.41-1.01,1.05-2.01,1.81-2.77,14.11-14.15,28.26-28.27,42.4-42.39,.71-.71,1.4-1.45,2.12-2.15,1.08-1.06,1.79-1.07,2.86-.02,1.72,1.7,3.42,3.42,5.09,5.1,3.63-3.64,7.2-7.22,10.87-10.91-1.03-1.05-2.15-2.18-3.26-3.3-.63-.63-1.28-1.25-1.9-1.89-.82-.84-.9-1.69-.26-2.36,.65-.67,1.52-.62,2.35,.2,2.89,2.86,5.76,5.73,8.64,8.6,3.03,3.03,6.08,6.05,9.07,9.12,.4,.41,.72,1.07,.74,1.62,.02,.38-.5,1.07-.85,1.12-.58,.07-1.38-.07-1.79-.45-1.65-1.5-3.19-3.13-4.77-4.71-.18-.18-.38-.35-.5-.47-3.63,3.62-7.23,7.21-11,10.96,1.66,1.6,3.39,3.24,5.09,4.92,1.22,1.21,1.2,1.79,0,2.99-14.66,14.66-29.32,29.32-43.99,43.98-3.2,3.2-5.91,3.6-10.03,1.42Zm12.88-8.46c-1.42-1.39-2.72-2.66-4.01-3.95-1.37-1.37-2.74-2.74-4.09-4.12-.65-.66-.66-1.41-.08-2.11,.54-.66,1.44-.64,2.2-.01,.17,.14,.33,.3,.49,.46,1.92,1.93,3.83,3.86,5.75,5.79,.59,.59,1.2,1.17,1.6,1.56,2.7-2.63,5.3-5.17,8.1-7.9-.37-.28-.79-.53-1.14-.87-2.23-2.2-4.44-4.42-6.65-6.64-.84-.85-.95-1.83-.3-2.45,.72-.7,1.47-.6,2.43,.33,.59,.57,1.17,1.15,1.74,1.74,1.97,2.03,3.93,4.06,5.82,6.02,2.77-2.76,5.36-5.33,7.98-7.93-.27-.28-.54-.58-.83-.87-2.34-2.35-4.7-4.68-7.02-7.05-.75-.76-.75-1.68-.06-2.27,.76-.64,1.52-.49,2.2,.16,.75,.73,1.48,1.47,2.21,2.22,1.88,1.91,3.75,3.82,5.5,5.61,2.73-2.71,5.33-5.29,7.99-7.93-2.52-2.5-5.09-5.04-7.65-7.59-.91-.91-.99-1.73-.3-2.43,.7-.71,1.49-.63,2.43,.3,1.7,1.68,3.39,3.36,5.05,5.07,.87,.9,1.66,1.88,2.43,2.77,2.33-2.32,4.38-4.36,6.32-6.3-5.32-5.35-10.63-10.71-15.98-16.1-.17,.15-.34,.29-.49,.45-14.45,14.44-28.91,28.88-43.35,43.33-1.76,1.76-1.79,4.2-.03,5.99,3.42,3.48,6.88,6.93,10.36,10.34,1.6,1.57,4.03,1.57,5.66,.02,1.89-1.8,3.72-3.66,5.73-5.64Zm-22.62-1.21c-1.4,1.39-2.8,2.72-4.12,4.13-.64,.69-.58,1.55,.06,2.23,1.71,1.77,3.45,3.51,5.21,5.22,.66,.64,1.55,.79,2.24,.17,1.45-1.32,2.79-2.75,4.1-4.06-2.54-2.6-5-5.12-7.49-7.68ZM74.85,23.82c3.63-3.61,7.26-7.21,10.77-10.71l-2.46-2.63c-3.64,3.61-7.25,7.18-10.89,10.8,.89,.88,1.82,1.79,2.58,2.54Z"/></svg>